<svg xmlns="http://www.w3.org/2000/svg" viewBox="0 0 676.67 333.55"><defs><style>.cls-1{fill:#553eff;}.cls-2{fill:#262626;}</style></defs><g id="레이어_2" data-name="레이어 2"><g id="레이어_1-2" data-name="레이어 1"><path class="cls-1" d="M300,137.78C300,62.44,239.85,1.24,165.2,0c-.38,0-.75,0-1.13,0H42A42.06,42.06,0,0,0,0,42.18V291.37a42.06,42.06,0,0,0,42,42.18H74A42.06,42.06,0,0,0,116,291.37V275.59h48.11c.38,0,.75,0,1.13,0C239.85,274.34,300,213.13,300,137.78Z"/><path class="cls-2" d="M423,174.54v-1.65a3.55,3.55,0,0,0-3.74-3.33h-54.7a3.55,3.55,0,0,1-3.74-3.32V152.32a3.55,3.55,0,0,1,3.74-3.33H509.4a3.55,3.55,0,0,1,3.74,3.33v13.92a3.55,3.55,0,0,1-3.74,3.32H454.91a3.55,3.55,0,0,0-3.74,3.33v1.65a3.55,3.55,0,0,0,3.74,3.33h44.32a3.55,3.55,0,0,1,3.74,3.32v38.59a3.55,3.55,0,0,1-3.74,3.32H400a3.55,3.55,0,0,0-3.74,3.33v1.11a3.55,3.55,0,0,0,3.74,3.32H504.62a3.55,3.55,0,0,1,3.74,3.33v13.55a3.55,3.55,0,0,1-3.74,3.33H373.08a3.55,3.55,0,0,1-3.74-3.33V207.51a3.55,3.55,0,0,1,3.74-3.32h99.27a3.35,3.35,0,1,0,0-6.65H372.88a3.55,3.55,0,0,1-3.74-3.33v-13a3.55,3.55,0,0,1,3.74-3.33h46.39A3.58,3.58,0,0,0,423,174.54Zm-25.58-55.4v-7.93c0-1.84-1.76-3.33-3.93-3.33H374c-2.16,0-3.93-1.49-3.93-3.32V90.81c0-1.83,1.77-3.32,3.93-3.32h125.8c2.17,0,3.93,1.49,3.93,3.32v13.74c0,1.83-1.76,3.32-3.93,3.32H481.12c-2.17,0-3.93,1.49-3.93,3.33v7.94c0,1.84,1.76,3.33,3.93,3.33h18.65c2.17,0,3.93,1.49,3.93,3.32v13.56c0,1.83-1.76,3.32-3.93,3.32H374c-2.16,0-3.93-1.49-3.93-3.32V125.81c0-1.84,1.77-3.33,3.93-3.33H393.5A3.67,3.67,0,0,0,397.43,119.14Zm25.49,3.34h28.53a3.55,3.55,0,0,0,3.74-3.32v-8a3.55,3.55,0,0,0-3.74-3.33H422.92a3.55,3.55,0,0,0-3.74,3.33v8A3.55,3.55,0,0,0,422.92,122.48Z"/><path class="cls-2" d="M528.16,232.23l-11.39-10a3.63,3.63,0,0,1,.24-5.65c25.89-19.46,38.48-45.93,38.48-78.34V117.37a3.71,3.71,0,0,0-3.74-3.67H521.5a3.7,3.7,0,0,1-3.74-3.66V97.22a3.71,3.71,0,0,1,3.74-3.67h96.62a3.7,3.7,0,0,1,3.73,3.67V110a3.7,3.7,0,0,1-3.73,3.66H588.64a3.71,3.71,0,0,0-3.74,3.67v21c0,31.27,14.61,58.7,39.24,75.09a3.62,3.62,0,0,1,.56,5.65l-10.82,10.54a3.84,3.84,0,0,1-4.76.43,101.07,101.07,0,0,1-35.06-40.63,3.78,3.78,0,0,0-6.87,0A102.87,102.87,0,0,1,533,232.42,3.85,3.85,0,0,1,528.16,232.23ZM658.22,87.13V141a3.55,3.55,0,0,0,3.74,3.32h11a3.55,3.55,0,0,1,3.74,3.33v14.47a3.55,3.55,0,0,1-3.74,3.32H662a3.55,3.55,0,0,0-3.74,3.33v78a3.55,3.55,0,0,1-3.74,3.33H635.1a3.55,3.55,0,0,1-3.74-3.33V87.13a3.55,3.55,0,0,1,3.74-3.32h19.38A3.53,3.53,0,0,1,658.22,87.13Z"/></g></g></svg>